<svg width="38" height="43" viewBox="0 0 38 43" fill="none" xmlns="http://www.w3.org/2000/svg">
<path d="M4.22222 42.2222H33.7778C36.1063 42.2222 38 40.3286 38 38V14.7778C38 14.2179 37.7776 13.6809 37.3817 13.285C36.9858 12.8891 36.4488 12.6667 35.8889 12.6667H29.5556V10.5556C29.5556 4.73522 24.8203 0 19 0C13.1797 0 8.44444 4.73522 8.44444 10.5556V12.6667H2.11111C1.55121 12.6667 1.01424 12.8891 0.61833 13.285C0.22242 13.6809 0 14.2179 0 14.7778V38C0 40.3286 1.89367 42.2222 4.22222 42.2222ZM12.6667 10.5556C12.6667 7.06378 15.5082 4.22222 19 4.22222C22.4918 4.22222 25.3333 7.06378 25.3333 10.5556V12.6667H12.6667V10.5556ZM4.22222 16.8889H8.44444H12.6667H25.3333H29.5556H33.7778L33.782 38H4.22222V16.8889Z" fill="black"/>
</svg>
