<svg width="30" height="34" viewBox="0 0 30 34" fill="none" xmlns="http://www.w3.org/2000/svg">
<path d="M3.33333 33.3333H26.6667C28.505 33.3333 30 31.8383 30 30V11.6667C30 11.2246 29.8244 10.8007 29.5118 10.4882C29.1993 10.1756 28.7754 10 28.3333 10H23.3333V8.33333C23.3333 3.73833 19.595 0 15 0C10.405 0 6.66667 3.73833 6.66667 8.33333V10H1.66667C1.22464 10 0.800716 10.1756 0.488155 10.4882C0.175595 10.8007 0 11.2246 0 11.6667V30C0 31.8383 1.495 33.3333 3.33333 33.3333ZM10 8.33333C10 5.57667 12.2433 3.33333 15 3.33333C17.7567 3.33333 20 5.57667 20 8.33333V10H10V8.33333ZM3.33333 13.3333H6.66667V16.6667H10V13.3333H20V16.6667H23.3333V13.3333H26.6667L26.67 30H3.33333V13.3333Z" fill="black"/>
</svg>
